<svg width="2417" height="2049" xmlns="http://www.w3.org/2000/svg" xmlns:xlink="http://www.w3.org/1999/xlink" xml:space="preserve" overflow="hidden"><defs><clipPath id="clip0"><rect x="-18" y="-2" width="2417" height="2049"/></clipPath></defs><g clip-path="url(#clip0)" transform="translate(18 2)"><rect x="165.5" y="126.5" width="572" height="449" stroke="#000000" stroke-width="4.58333" stroke-miterlimit="8" fill="none"/><text font-family="Univers,Univers_MSFontService,sans-serif" font-weight="400" font-size="37" transform="matrix(1 0 0 1 197.917 294)">Records identified from:</text><text font-family="Univers,Univers_MSFontService,sans-serif" font-weight="400" font-size="37" transform="matrix(1 0 0 1 311.653 340)">Databases (n=2)</text><text fill="#767171" font-family="Univers,Univers_MSFontService,sans-serif" font-weight="400" font-size="37" transform="matrix(1 0 0 1 265.797 386)">Embase Ovid (n=466)</text><text fill="#767171" font-family="Univers,Univers_MSFontService,sans-serif" font-weight="400" font-size="37" transform="matrix(1 0 0 1 308.628 433)">PubMed (n=392)</text><rect x="813.5" y="126.5" width="728" height="449" stroke="#000000" stroke-width="4.58333" stroke-miterlimit="8" fill="none"/><text font-family="Univers,Univers_MSFontService,sans-serif" font-weight="400" font-size="37" transform="matrix(1 0 0 1 868.437 340)">Records removed before screening:</text><text font-family="Univers,Univers_MSFontService,sans-serif" font-weight="400" font-size="37" transform="matrix(1 0 0 1 873.02 386)">Duplicate records removed (n=212)</text><rect x="165.5" y="677.5" width="572" height="190" stroke="#000000" stroke-width="4.58333" stroke-miterlimit="8" fill="none"/><text font-family="Univers,Univers_MSFontService,sans-serif" font-weight="400" font-size="37" transform="matrix(1 0 0 1 227.074 785)">Records screened (n=646)</text><rect x="816.5" y="677.5" width="728" height="190" stroke="#000000" stroke-width="4.58333" stroke-miterlimit="8" fill="none"/><text font-family="Univers,Univers_MSFontService,sans-serif" font-weight="400" font-size="37" transform="matrix(1 0 0 1 956.361 785)">Records excluded (n=456)</text><rect x="165.5" y="976.5" width="572" height="190" stroke="#000000" stroke-width="4.58333" stroke-miterlimit="8" fill="none"/><text font-family="Univers,Univers_MSFontService,sans-serif" font-weight="400" font-size="37" transform="matrix(1 0 0 1 212.327 1061)">Reports sought for retrieval </text><text font-family="Univers,Univers_MSFontService,sans-serif" font-weight="400" font-size="37" transform="matrix(1 0 0 1 386.012 1107)">(n=190)</text><rect x="813.5" y="981.5" width="728" height="190" stroke="#000000" stroke-width="4.58333" stroke-miterlimit="8" fill="none"/><text font-family="Univers,Univers_MSFontService,sans-serif" font-weight="400" font-size="37" transform="matrix(1 0 0 1 944.326 1089)">Reports not retrieved (n=0)</text><rect x="165.5" y="1271.5" width="572" height="190" stroke="#000000" stroke-width="4.58333" stroke-miterlimit="8" fill="none"/><text font-family="Univers,Univers_MSFontService,sans-serif" font-weight="400" font-size="37" transform="matrix(1 0 0 1 270.398 1356)">Reports assessed for </text><text font-family="Univers,Univers_MSFontService,sans-serif" font-weight="400" font-size="37" transform="matrix(1 0 0 1 301.427 1402)">eligibility (n=195)</text><rect x="830.5" y="1231.5" width="693" height="388" stroke="#000000" stroke-width="4.58333" stroke-miterlimit="8" fill="none"/><text font-family="Univers,Univers_MSFontService,sans-serif" font-weight="400" font-size="37" transform="matrix(1 0 0 1 862.506 1323)">Reports excluded:</text><text font-family="Univers,Univers_MSFontService,sans-serif" font-weight="400" font-size="37" transform="matrix(1 0 0 1 862.506 1369)">Unrelated Health Outcomes (n =30)</text><text font-family="Univers,Univers_MSFontService,sans-serif" font-weight="400" font-size="37" transform="matrix(1 0 0 1 862.506 1415)">Failed to Access (n =16)</text><text font-family="Univers,Univers_MSFontService,sans-serif" font-weight="400" font-size="37" transform="matrix(1 0 0 1 862.506 1462)">Studies not based in Nigeria (n=3)</text><text font-family="Univers,Univers_MSFontService,sans-serif" font-weight="400" font-size="37" transform="matrix(1 0 0 1 862.506 1508)">Article not found (n=14)</text><text font-family="Univers,Univers_MSFontService,sans-serif" font-weight="400" font-size="37" transform="matrix(1 0 0 1 862.506 1554)">Beyond the scope of the study (n=2)</text><rect x="1585.5" y="126.5" width="806" height="449" stroke="#000000" stroke-width="4.58333" stroke-miterlimit="8" fill="none"/><text font-family="Univers,Univers_MSFontService,sans-serif" font-weight="400" font-size="37" transform="matrix(1 0 0 1 1779.12 317)">Records identified from:</text><text font-family="Univers,Univers_MSFontService,sans-serif" font-weight="400" font-size="37" transform="matrix(1 0 0 1 1859.06 363)">Websites (n=2)</text><text font-family="Univers,Univers_MSFontService,sans-serif" font-weight="400" font-size="37" transform="matrix(1 0 0 1 1807.1 409)">Organisations (n=11)</text><rect x="1588.5" y="1274.5" width="806" height="190" stroke="#000000" stroke-width="4.58333" stroke-miterlimit="8" fill="none"/><text font-family="Univers,Univers_MSFontService,sans-serif" font-weight="400" font-size="37" transform="matrix(1 0 0 1 1621.09 1382)">Reports assessed for eligibility (n=13)</text><rect x="156.5" y="1783.5" width="572" height="261" stroke="#000000" stroke-width="4.58333" stroke-miterlimit="8" fill="none"/><text font-family="Univers,Univers_MSFontService,sans-serif" font-weight="400" font-size="37" transform="matrix(1 0 0 1 189.309 1857)">Studies included in review</text><text font-family="Univers,Univers_MSFontService,sans-serif" font-weight="400" font-size="37" transform="matrix(1 0 0 1 189.309 1903)">(n=143)</text><text font-family="Univers,Univers_MSFontService,sans-serif" font-weight="400" font-size="37" transform="matrix(1 0 0 1 189.309 1949)">Reports of included studies</text><text font-family="Univers,Univers_MSFontService,sans-serif" font-weight="400" font-size="37" transform="matrix(1 0 0 1 189.309 1996)">(n=143)</text><path d="M733 344.854 788.029 344.855 788.029 347.146 733 347.146ZM783.445 332.25 810.945 346.001 783.445 359.75Z"/><path d="M736 769.854 791.029 769.854 791.029 772.146 736 772.146ZM786.446 757.25 813.945 771 786.445 784.75Z"/><path d="M736 1073.85 791.029 1073.85 791.029 1076.15 736 1076.15ZM786.446 1061.25 813.945 1075 786.445 1088.75Z"/><path d="M736 1371.85 791.029 1371.85 791.029 1374.15 736 1374.15ZM786.446 1359.25 813.945 1373 786.445 1386.75Z"/><path d="M168.5 16.3327C168.5 7.58846 175.589 0.499836 184.333 0.499836L1516.67 0.499836C1525.41 0.499836 1532.5 7.58846 1532.5 16.3327L1532.5 79.6672C1532.5 88.4115 1525.41 95.5001 1516.67 95.5001L184.333 95.5001C175.589 95.5001 168.5 88.4115 168.5 79.6672Z" stroke="#BC8C00" stroke-width="4.58333" stroke-miterlimit="8" fill="#FFC000" fill-rule="evenodd"/><text font-family="Univers,Univers_MSFontService,sans-serif" font-weight="700" font-size="41" transform="matrix(1 0 0 1 393.642 63)">Identifying studies via databases and registers</text><path d="M1577.5 16.3331C1577.5 7.58861 1584.59 0.499836 1593.33 0.499836L2379.67 0.499836C2388.41 0.499836 2395.5 7.58861 2395.5 16.3331L2395.5 79.6668C2395.5 88.4113 2388.41 95.5001 2379.67 95.5001L1593.33 95.5001C1584.59 95.5001 1577.5 88.4113 1577.5 79.6668Z" stroke="#BC8C00" stroke-width="4.58333" stroke-miterlimit="8" fill="#FFC000" fill-rule="evenodd"/><text font-family="Univers,Univers_MSFontService,sans-serif" font-weight="700" font-size="41" transform="matrix(1 0 0 1 1617.96 63)">Identifying studies via other methods</text><path d="M17.1667 579.5C8.51427 579.5 1.50005 572.486 1.50005 563.833L1.50005 134.167C1.50005 125.514 8.51427 118.5 17.1667 118.5L79.8335 118.5C88.486 118.5 95.5002 125.514 95.5002 134.167L95.5002 563.833C95.5002 572.486 88.486 579.5 79.8335 579.5Z" stroke="#000000" stroke-width="4.58333" stroke-miterlimit="8" fill="#9DC3E6" fill-rule="evenodd"/><text font-family="Univers,Univers_MSFontService,sans-serif" font-weight="700" font-size="41" transform="matrix(-1.83697e-16 -1 1 -1.83697e-16 63.0309 478)">Identification</text><path d="M16.3338 1715.5C7.58893 1715.5 0.499836 1708.41 0.499836 1699.67L0.499836 692.333C0.499836 683.588 7.58893 676.499 16.3338 676.499L79.6673 676.5C88.4121 676.5 95.5012 683.589 95.5012 692.334L95.5001 1699.67C95.5001 1708.41 88.411 1715.5 79.6661 1715.5Z" stroke="#000000" stroke-width="4.58333" stroke-miterlimit="8" fill="#9DC3E6" fill-rule="evenodd"/><text font-family="Univers,Univers_MSFontService,sans-serif" font-weight="700" font-size="41" transform="matrix(-1.83697e-16 -1 1 -1.83697e-16 36.5705 1294)">Screening</text><path d="M21.3333 2043.5C12.5888 2043.5 5.5 2036.41 5.5 2027.67L5.5 1784.33C5.5 1775.59 12.5888 1768.5 21.3333 1768.5L84.6666 1768.5C93.4111 1768.5 100.5 1775.59 100.5 1784.33L100.5 2027.67C100.5 2036.41 93.4111 2043.5 84.6666 2043.5Z" stroke="#000000" stroke-width="4.58333" stroke-miterlimit="8" fill="#9DC3E6" fill-rule="evenodd"/><text font-family="Univers,Univers_MSFontService,sans-serif" font-weight="700" font-size="41" transform="matrix(-1.83697e-16 -1 1 -1.83697e-16 67.2678 1989)">Included</text><path d="M469.146 574 469.146 652.595 466.854 652.595 466.854 574ZM481.75 648.011 468 675.512 454.25 648.012Z"/><path d="M469.146 872 469.146 950.595 466.854 950.595 466.854 872ZM481.75 946.012 468 973.512 454.25 946.012Z"/><path d="M472.146 1165 472.146 1243.59 469.854 1243.59 469.854 1165ZM484.75 1239.01 471 1266.51 457.25 1239.01Z"/><path d="M0-1.14583 1.74412-1.14583 1.74412 454.682 0.598287 453.536 1198.23 453.536 1198.23 455.828-0.547546 455.828-0.547546 0 0.598287 1.14583 0 1.14583ZM1193.65 440.932 1221.15 454.682 1193.65 468.432Z" transform="matrix(-1 0 0 1 1948.15 1463)"/><path d="M469.146 1460 469.146 1706.34 466.854 1706.34 466.854 1460ZM481.75 1701.75 468 1729.25 454.25 1701.75Z"/><rect x="1591.5" y="978.5" width="805" height="190" stroke="#000000" stroke-width="4.58333" stroke-miterlimit="8" fill="none"/><text font-family="Univers,Univers_MSFontService,sans-serif" font-weight="400" font-size="37" transform="matrix(1 0 0 1 1623.96 1086)">Reports sought for retrieval (n=13)</text><path d="M1944.15 1168 1944.15 1246.59 1941.85 1246.59 1941.85 1168ZM1956.75 1242.01 1943 1269.51 1929.25 1242.01Z"/><path d="M1935.15 577 1935.15 946.151 1932.85 946.151 1932.85 577ZM1947.75 941.568 1934 969.068 1920.25 941.568Z"/></g></svg>